# xmcd CD database file
#
# Track frame offsets:
#	150
#	17365
#	29530
#
# Disc length: 634 seconds
#
# Revision: 0
# Processed by: cddbd v1.5PL3 Copyright (c) Steve Scherf et al.
# Submitted via: CDex 1.51
#
DISCID=17027803
DTITLE=つじあやの - パレード
DYEAR=2003
DGENRE=JPop
TTITLE0=パレード
TTITLE1=月が泣いてる
TTITLE2=パレード Instrumental
EXTD=YEAR: 2003
EXTT0=
EXTT1=
EXTT2=
PLAYORDER=
